ffmpeg started on 2016-12-01 at 19:41:09
Report written to "Output/x264/results/ffmpeg/old_town_cross_2160p50slow10000k.log"
Command line:
Tools/ffmpeg/ffmpeg -benchmark -y -i Input/y4m/old_town_cross_2160p50.y4m -c:v libx264 -preset slow -b:v 10000k -an Output/x264/encoded/old_town_cross_2160p50slow10000k.mkv
ffmpeg version N-82227-gdb23fde Copyright (c) 2000-2016 the FFmpeg developers
  built with gcc 5.4.0 (Ubuntu 5.4.0-6ubuntu1~16.04.2) 20160609
  configuration: --prefix=/home/jaroslav/ffmpeg_build --pkg-config-flags=--static --extra-cflags=-I/home/jaroslav/ffmpeg_build/include --extra-ldflags=-L/home/jaroslav/ffmpeg_build/lib --bindir=/home/jaroslav/bin --enable-gpl --enable-libass --enable-libfdk-aac --enable-libfreetype --enable-libmp3lame --enable-libopus --enable-libtheora --enable-libvorbis --enable-libvpx --enable-libx264 --enable-libx265 --enable-nvenc --enable-libmfx --enable-libxvid --enable-libgsm --enable-libopencore-amrnb --enable-version3 --enable-nonfree
  libavutil      55. 35.100 / 55. 35.100
  libavcodec     57. 66.101 / 57. 66.101
  libavformat    57. 57.100 / 57. 57.100
  libavdevice    57.  2.100 / 57.  2.100
  libavfilter     6. 66.100 /  6. 66.100
  libswscale      4.  3.100 /  4.  3.100
  libswresample   2.  4.100 /  2.  4.100
  libpostproc    54.  2.100 / 54.  2.100
Input #0, yuv4mpegpipe, from 'Input/y4m/old_town_cross_2160p50.y4m':
  Duration: 00:00:10.00, start: 0.000000, bitrate: 4976642 kb/s
    Stream #0:0: Video: rawvideo (I420 / 0x30323449), yuv420p(progressive), 3840x2160, SAR 1:1 DAR 16:9, 50 fps, 50 tbr, 50 tbn, 50 tbc
[libx264 @ 0x45d0120] using SAR=1/1
[libx264 @ 0x45d0120] using cpu capabilities: MMX2 SSE2Fast SSSE3 SSE4.2 AVX FMA3 AVX2 LZCNT BMI2
[libx264 @ 0x45d0120] profile High, level 5.2
[libx264 @ 0x45d0120] 264 - core 148 - H.264/MPEG-4 AVC codec - Copyleft 2003-2016 - http://www.videolan.org/x264.html - options: cabac=1 ref=5 deblock=1:0:0 analyse=0x3:0x113 me=hex subme=8 psy=1 psy_rd=1.00:0.00 mixed_ref=1 me_range=16 chroma_me=1 trellis=2 8x8dct=1 cqm=0 deadzone=21,11 fast_pskip=1 chroma_qp_offset=-2 threads=6 lookahead_threads=1 sliced_threads=0 nr=0 decimate=1 interlaced=0 bluray_compat=0 constrained_intra=0 bframes=3 b_pyramid=2 b_adapt=1 b_bias=0 direct=3 weightb=1 open_gop=0 weightp=2 keyint=250 keyint_min=25 scenecut=40 intra_refresh=0 rc_lookahead=50 rc=abr mbtree=1 bitrate=10000 ratetol=1.0 qcomp=0.60 qpmin=0 qpmax=69 qpstep=4 ip_ratio=1.40 aq=1:1.00
Output #0, matroska, to 'Output/x264/encoded/old_town_cross_2160p50slow10000k.mkv':
  Metadata:
    encoder         : Lavf57.57.100
    Stream #0:0: Video: h264 (libx264) (H264 / 0x34363248), yuv420p, 3840x2160 [SAR 1:1 DAR 16:9], q=-1--1, 10000 kb/s, 50 fps, 1k tbn, 50 tbc
    Metadata:
      encoder         : Lavc57.66.101 libx264
    Side data:
      cpb: bitrate max/min/avg: 0/0/10000000 buffer size: 0 vbv_delay: -1
Stream mapping:
  Stream #0:0 -> #0:0 (rawvideo (native) -> h264 (libx264))
Press [q] to stop, [?] for help
frame=   57 fps= 18 q=0.0 size=       0kB time=00:00:00.00 bitrate=N/A speed=   0x    frame=   62 fps= 15 q=34.0 size=       1kB time=-00:00:00.01 bitrate=N/A speed=N/A    frame=   65 fps= 14 q=42.0 size=       1kB time=00:00:00.04 bitrate= 143.2kbits/s speed=0.00861x    frame=   69 fps= 13 q=46.0 size=       1kB time=00:00:00.12 bitrate=  48.5kbits/s speed=0.0223x    frame=   78 fps= 13 q=42.0 size=       1kB time=00:00:00.30 bitrate=  19.5kbits/s speed=0.0506x    frame=   84 fps= 13 q=40.0 size=       1kB time=00:00:00.42 bitrate=  13.9kbits/s speed=0.0649x    frame=   89 fps= 13 q=38.0 size=       1kB time=00:00:00.52 bitrate=  11.3kbits/s speed=0.0744x    frame=   96 fps= 12 q=38.0 size=       1kB time=00:00:00.66 bitrate=   8.9kbits/s speed=0.0852x    frame=  101 fps= 12 q=37.0 size=       1kB time=00:00:00.76 bitrate=   7.7kbits/s speed=0.0921x    frame=  104 fps= 12 q=37.0 size=       1kB time=00:00:00.82 bitrate=   7.2kbits/s speed=0.0937x    frame=  111 fps= 12 q=36.0 size=       1kB time=00:00:00.96 bitrate=   6.1kbits/s speed= 0.1x    frame=  115 fps= 11 q=36.0 size=       1kB time=00:00:01.04 bitrate=   5.6kbits/s speed=0.102x    frame=  121 fps= 11 q=35.0 size=       1kB time=00:00:01.16 bitrate=   5.1kbits/s speed=0.107x    frame=  124 fps= 11 q=35.0 size=       1kB time=00:00:01.22 bitrate=   4.8kbits/s speed=0.107x    frame=  127 fps= 11 q=35.0 size=       1kB time=00:00:01.28 bitrate=   4.6kbits/s speed=0.107x    frame=  133 fps= 11 q=35.0 size=       1kB time=00:00:01.40 bitrate=   4.2kbits/s speed=0.112x    frame=  135 fps= 10 q=35.0 size=       1kB time=00:00:01.44 bitrate=   4.1kbits/s speed=0.11x    frame=  140 fps= 10 q=35.0 size=       1kB time=00:00:01.54 bitrate=   3.8kbits/s speed=0.114x    frame=  143 fps= 10 q=35.0 size=       1kB time=00:00:01.60 bitrate=   3.7kbits/s speed=0.112x    frame=  149 fps= 10 q=34.0 size=       1kB time=00:00:01.72 bitrate=   3.4kbits/s speed=0.116x    frame=  151 fps=9.8 q=35.0 size=       1kB time=00:00:01.76 bitrate=   3.3kbits/s speed=0.114x    frame=  155 fps=9.6 q=34.0 size=       1kB time=00:00:01.84 bitrate=   3.2kbits/s speed=0.115x    frame=  160 fps=9.6 q=34.0 size=       1kB time=00:00:01.94 bitrate=   3.0kbits/s speed=0.117x    frame=  163 fps=9.4 q=34.0 size=       1kB time=00:00:02.00 bitrate=   2.9kbits/s speed=0.116x    frame=  167 fps=9.4 q=34.0 size=       1kB time=00:00:02.08 bitrate=   2.8kbits/s speed=0.117x    frame=  171 fps=9.2 q=34.0 size=       1kB time=00:00:02.16 bitrate=   2.7kbits/s speed=0.117x    frame=  175 fps=9.2 q=34.0 size=       1kB time=00:00:02.24 bitrate=   2.6kbits/s speed=0.117x    frame=  179 fps=9.1 q=34.0 size=       1kB time=00:00:02.32 bitrate=   2.5kbits/s speed=0.118x    frame=  183 fps=9.0 q=34.0 size=       1kB time=00:00:02.40 bitrate=   2.4kbits/s speed=0.118x    frame=  187 fps=8.9 q=34.0 size=       1kB time=00:00:02.48 bitrate=   2.4kbits/s speed=0.118x    frame=  191 fps=8.8 q=34.0 size=       1kB time=00:00:02.56 bitrate=   2.3kbits/s speed=0.118x    frame=  195 fps=8.8 q=34.0 size=       1kB time=00:00:02.64 bitrate=   2.2kbits/s speed=0.119x    frame=  199 fps=8.7 q=34.0 size=       1kB time=00:00:02.72 bitrate=   2.2kbits/s speed=0.118x    frame=  204 fps=8.7 q=34.0 size=       1kB time=00:00:02.82 bitrate=   2.1kbits/s speed=0.12x    frame=  207 fps=8.5 q=34.0 size=       1kB time=00:00:02.88 bitrate=   2.0kbits/s speed=0.119x    frame=  212 fps=8.6 q=34.0 size=       1kB time=00:00:02.98 bitrate=   2.0kbits/s speed=0.12x    frame=  215 fps=8.5 q=34.0 size=       1kB time=00:00:03.04 bitrate=   1.9kbits/s speed=0.12x    frame=  219 fps=8.4 q=34.0 size=       1kB time=00:00:03.12 bitrate=   1.9kbits/s speed=0.12x    frame=  223 fps=8.4 q=34.0 size=       1kB time=00:00:03.20 bitrate=   1.8kbits/s speed=0.12x    frame=  227 fps=8.3 q=34.0 size=       1kB time=00:00:03.28 bitrate=   1.8kbits/s speed=0.12x    frame=  231 fps=8.2 q=34.0 size=       1kB time=00:00:03.36 bitrate=   1.7kbits/s speed=0.12x    frame=  235 fps=8.2 q=34.0 size=       1kB time=00:00:03.44 bitrate=   1.7kbits/s speed=0.12x    frame=  240 fps=8.2 q=34.0 size=       1kB time=00:00:03.54 bitrate=   1.7kbits/s speed=0.121x    frame=  243 fps=8.1 q=34.0 size=       1kB time=00:00:03.60 bitrate=   1.6kbits/s speed=0.12x    frame=  248 fps=8.1 q=34.0 size=       1kB time=00:00:03.70 bitrate=   1.6kbits/s speed=0.121x    frame=  251 fps=8.0 q=34.0 size=       1kB time=00:00:03.76 bitrate=   1.6kbits/s speed=0.12x    frame=  257 fps=8.0 q=34.0 size=       1kB time=00:00:03.88 bitrate=   1.5kbits/s speed=0.121x    frame=  260 fps=8.0 q=34.0 size=       1kB time=00:00:03.94 bitrate=   1.5kbits/s speed=0.121x    frame=  263 fps=7.9 q=34.0 size=       1kB time=00:00:04.00 bitrate=   1.5kbits/s speed=0.121x    frame=  267 fps=7.9 q=34.0 size=       1kB time=00:00:04.08 bitrate=   1.4kbits/s speed=0.121x    frame=  271 fps=7.8 q=34.0 size=       1kB time=00:00:04.16 bitrate=   1.4kbits/s speed=0.12x    frame=  272 fps=7.7 q=34.0 size=       1kB time=00:00:04.18 bitrate=   1.4kbits/s speed=0.119x    frame=  273 fps=7.6 q=34.0 size=       1kB time=00:00:04.20 bitrate=   1.4kbits/s speed=0.117x    frame=  275 fps=7.5 q=34.0 size=       1kB time=00:00:04.24 bitrate=   1.4kbits/s speed=0.115x    frame=  279 fps=7.5 q=34.0 size=       1kB time=00:00:04.32 bitrate=   1.4kbits/s speed=0.116x    frame=  281 fps=7.4 q=34.0 size=    5121kB time=00:00:04.36 bitrate=9620.3kbits/s speed=0.115x    frame=  284 fps=7.3 q=34.0 size=    5121kB time=00:00:04.42 bitrate=9489.8kbits/s speed=0.114x    frame=  288 fps=7.3 q=35.0 size=    5121kB time=00:00:04.50 bitrate=9321.1kbits/s speed=0.114x    frame=  291 fps=7.3 q=35.0 size=    5121kB time=00:00:04.56 bitrate=9198.5kbits/s speed=0.114x    frame=  294 fps=7.2 q=35.0 size=    5121kB time=00:00:04.62 bitrate=9079.0kbits/s speed=0.114x    frame=  297 fps=7.2 q=35.0 size=    5121kB time=00:00:04.68 bitrate=8962.7kbits/s speed=0.114x    frame=  300 fps=7.2 q=35.0 size=    5121kB time=00:00:04.74 bitrate=8849.2kbits/s speed=0.113x    frame=  304 fps=7.1 q=35.0 size=    5121kB time=00:00:04.82 bitrate=8702.4kbits/s speed=0.113x    frame=  308 fps=7.1 q=35.0 size=    5121kB time=00:00:04.90 bitrate=8560.4kbits/s speed=0.114x    frame=  311 fps=7.1 q=35.0 size=    6029kB time=00:00:04.96 bitrate=9955.3kbits/s speed=0.113x    frame=  317 fps=7.1 q=36.0 size=    6029kB time=00:00:05.08 bitrate=9720.2kbits/s speed=0.114x    frame=  321 fps=7.1 q=36.0 size=    6029kB time=00:00:05.16 bitrate=9569.5kbits/s speed=0.114x    frame=  327 fps=7.1 q=36.0 size=    6029kB time=00:00:05.28 bitrate=9352.1kbits/s speed=0.115x    frame=  330 fps=7.1 q=35.0 size=    6029kB time=00:00:05.34 bitrate=9247.0kbits/s speed=0.115x    frame=  335 fps=7.1 q=35.0 size=    6029kB time=00:00:05.44 bitrate=9077.1kbits/s speed=0.116x    frame=  340 fps=7.1 q=35.0 size=    6029kB time=00:00:05.54 bitrate=8913.2kbits/s speed=0.116x    frame=  345 fps=7.1 q=35.0 size=    6029kB time=00:00:05.64 bitrate=8755.2kbits/s speed=0.116x    frame=  349 fps=7.1 q=35.0 size=    6029kB time=00:00:05.72 bitrate=8632.8kbits/s speed=0.117x    frame=  352 fps=7.1 q=35.0 size=    6029kB time=00:00:05.78 bitrate=8543.2kbits/s speed=0.117x    frame=  357 fps=7.1 q=35.0 size=    6029kB time=00:00:05.88 bitrate=8397.9kbits/s speed=0.117x    frame=  361 fps=7.1 q=35.0 size=    6029kB time=00:00:05.96 bitrate=8285.2kbits/s speed=0.117x    frame=  365 fps=7.1 q=35.0 size=    6029kB time=00:00:06.04 bitrate=8175.5kbits/s speed=0.118x    frame=  370 fps=7.1 q=35.0 size=    6029kB time=00:00:06.14 bitrate=8042.4kbits/s speed=0.118x    frame=  373 fps=7.1 q=35.0 size=    6029kB time=00:00:06.20 bitrate=7964.6kbits/s speed=0.118x    frame=  378 fps=7.1 q=35.0 size=    6029kB time=00:00:06.30 bitrate=7838.2kbits/s speed=0.119x    frame=  380 fps=7.1 q=35.0 size=    6029kB time=00:00:06.34 bitrate=7788.7kbits/s speed=0.118x    frame=  385 fps=7.1 q=35.0 size=    6029kB time=00:00:06.44 bitrate=7667.8kbits/s speed=0.119x    frame=  389 fps=7.1 q=35.0 size=    6029kB time=00:00:06.52 bitrate=7573.7kbits/s speed=0.119x    frame=  392 fps=7.1 q=35.0 size=    6029kB time=00:00:06.58 bitrate=7504.7kbits/s speed=0.119x    frame=  396 fps=7.1 q=35.0 size=    6029kB time=00:00:06.66 bitrate=7414.5kbits/s speed=0.119x    frame=  400 fps=7.1 q=35.0 size=    6029kB time=00:00:06.74 bitrate=7326.5kbits/s speed=0.119x    frame=  404 fps=7.1 q=35.0 size=    6029kB time=00:00:06.82 bitrate=7240.6kbits/s speed=0.12x    frame=  408 fps=7.1 q=35.0 size=    6029kB time=00:00:06.90 bitrate=7156.7kbits/s speed=0.12x    frame=  412 fps=7.1 q=35.0 size=    6029kB time=00:00:06.98 bitrate=7074.7kbits/s speed=0.12x    frame=  416 fps=7.1 q=35.0 size=    6029kB time=00:00:07.06 bitrate=6994.5kbits/s speed=0.12x    frame=  420 fps=7.1 q=34.0 size=    6029kB time=00:00:07.14 bitrate=6916.2kbits/s speed=0.12x    frame=  424 fps=7.1 q=34.0 size=    6029kB time=00:00:07.22 bitrate=6839.5kbits/s speed=0.12x    frame=  428 fps=7.1 q=34.0 size=    6029kB time=00:00:07.30 bitrate=6764.6kbits/s speed=0.12x    frame=  432 fps=7.0 q=34.0 size=    6029kB time=00:00:07.38 bitrate=6691.3kbits/s speed=0.12x    frame=  436 fps=7.1 q=34.0 size=    6029kB time=00:00:07.46 bitrate=6619.5kbits/s speed=0.121x    frame=  440 fps=7.0 q=34.0 size=    6029kB time=00:00:07.54 bitrate=6549.3kbits/s speed=0.121x    frame=  444 fps=7.0 q=34.0 size=    6029kB time=00:00:07.62 bitrate=6480.5kbits/s speed=0.121x    frame=  448 fps=7.0 q=34.0 size=    6029kB time=00:00:07.70 bitrate=6413.2kbits/s speed=0.121x    frame=  452 fps=7.0 q=34.0 size=    6029kB time=00:00:07.78 bitrate=6347.3kbits/s speed=0.121x    frame=  456 fps=7.0 q=34.0 size=    6029kB time=00:00:07.86 bitrate=6282.7kbits/s speed=0.121x    frame=  460 fps=7.0 q=34.0 size=    6029kB time=00:00:07.94 bitrate=6219.4kbits/s speed=0.121x    frame=  464 fps=7.0 q=34.0 size=    6029kB time=00:00:08.02 bitrate=6157.4kbits/s speed=0.121x    frame=  469 fps=7.0 q=34.0 size=    6029kB time=00:00:08.12 bitrate=6081.5kbits/s speed=0.122x    frame=  472 fps=7.0 q=34.0 size=    6029kB time=00:00:08.18 bitrate=6036.9kbits/s speed=0.122x    frame=  476 fps=7.0 q=34.0 size=    6029kB time=00:00:08.26 bitrate=5978.5kbits/s speed=0.122x    frame=  480 fps=7.0 q=34.0 size=    6029kB time=00:00:08.34 bitrate=5921.1kbits/s speed=0.122x    frame=  484 fps=7.0 q=34.0 size=    6029kB time=00:00:08.42 bitrate=5864.9kbits/s speed=0.122x    frame=  488 fps=7.0 q=34.0 size=    6029kB time=00:00:08.50 bitrate=5809.7kbits/s speed=0.122x    frame=  494 fps=7.0 q=34.0 size=    6029kB time=00:00:08.62 bitrate=5728.8kbits/s speed=0.123x    frame=  496 fps=7.0 q=34.0 size=    6029kB time=00:00:08.66 bitrate=5702.4kbits/s speed=0.122x    frame=  500 fps=7.0 q=34.0 size=    6029kB time=00:00:08.74 bitrate=5650.2kbits/s speed=0.122x    frame=  500 fps=6.1 q=-1.0 Lsize=   12414kB time=00:00:09.94 bitrate=10229.5kbits/s speed=0.122x    
video:12409kB audio:0kB subtitle:0kB other streams:0kB global headers:0kB muxing overhead: 0.036445%
bench: utime=303.628s
bench: maxrss=2232700kB
[libx264 @ 0x45d0120] frame I:3     Avg QP:30.11  size:436331
[libx264 @ 0x45d0120] frame P:183   Avg QP:32.72  size: 39754
[libx264 @ 0x45d0120] frame B:314   Avg QP:34.71  size: 13128
[libx264 @ 0x45d0120] consecutive B-frames: 16.0%  0.8%  0.0% 83.2%
[libx264 @ 0x45d0120] mb I  I16..4: 20.1% 65.5% 14.4%
[libx264 @ 0x45d0120] mb P  I16..4:  0.0%  0.0%  0.0%  P16..4: 35.2%  3.0%  5.5%  0.0%  0.0%    skip:56.3%
[libx264 @ 0x45d0120] mb B  I16..4:  0.0%  0.0%  0.0%  B16..8: 47.2%  0.1%  0.0%  direct: 0.0%  skip:52.6%  L0:47.7% L1:52.2% BI: 0.0%
[libx264 @ 0x45d0120] final ratefactor: 26.79
[libx264 @ 0x45d0120] 8x8 transform intra:65.6% inter:67.1%
[libx264 @ 0x45d0120] direct mvs  spatial:98.7% temporal:1.3%
[libx264 @ 0x45d0120] coded y,uvDC,uvAC intra: 85.9% 72.4% 51.2% inter: 3.5% 4.7% 0.0%
[libx264 @ 0x45d0120] i16 v,h,dc,p: 12% 25%  8% 55%
[libx264 @ 0x45d0120] i8 v,h,dc,ddl,ddr,vr,hd,vl,hu:  5%  7%  1% 15% 19% 14% 19%  9% 12%
[libx264 @ 0x45d0120] i4 v,h,dc,ddl,ddr,vr,hd,vl,hu:  2%  2%  1% 20% 21% 13% 18%  9% 13%
[libx264 @ 0x45d0120] i8c dc,h,v,p: 39% 33% 17% 11%
[libx264 @ 0x45d0120] Weighted P-Frames: Y:0.5% UV:0.0%
[libx264 @ 0x45d0120] ref P L0: 60.3% 20.7% 12.3%  2.9%  2.9%  1.0%
[libx264 @ 0x45d0120] ref B L0: 79.4% 14.0%  5.6%  0.9%
[libx264 @ 0x45d0120] ref B L1: 93.9%  6.1%
[libx264 @ 0x45d0120] kb/s:10164.92
